<?xml version="1.0" encoding="UTF-8"?>
<svg version="1.1" xmlns="http://www.w3.org/2000/svg" width="512" height="512">
<path d="M0 0 C168.96 0 337.92 0 512 0 C512 168.96 512 337.92 512 512 C343.04 512 174.08 512 0 512 C0 343.04 0 174.08 0 0 Z " fill="#FBFBFB" transform="translate(0,0)"/>
<path d="M0 0 C168.96 0 337.92 0 512 0 C512 168.96 512 337.92 512 512 C343.04 512 174.08 512 0 512 C0 343.04 0 174.08 0 0 Z M32 51 C31.69735278 53.96033215 31.69735278 53.96033215 31.75390434 57.50866127 C31.75159665 58.18800681 31.74928897 58.86735234 31.74691135 59.56728411 C31.7415758 61.86629218 31.7506246 64.16502566 31.75949097 66.46401978 C31.75861962 68.1197915 31.75686996 69.77556296 31.75431263 71.43133295 C31.74982106 75.99888031 31.7578675 80.56633463 31.76786876 85.13387012 C31.77647502 90.05276305 31.77358511 94.97165038 31.77206421 99.89054871 C31.77101356 108.41872026 31.77730889 116.9468613 31.78853989 125.47502518 C31.80476765 137.80543998 31.8100001 150.13583997 31.81251587 162.46626429 C31.81689726 182.4697054 31.83021839 202.47313023 31.84912109 222.4765625 C31.86746842 241.91243407 31.88163053 261.34830122 31.89013672 280.78417969 C31.89066217 281.98143947 31.89118761 283.17869925 31.89172898 284.41223963 C31.89433898 290.4183109 31.89686642 296.42438221 31.89935279 302.43045354 C31.92009911 352.28698028 31.9553367 402.14348935 32 452 C38.23790082 455.11895041 47.15031137 454.14586852 53.9967041 454.13371277 C54.95122137 454.13597833 55.90573863 454.13824388 56.88918066 454.14057809 C60.05959659 454.14686416 63.22996919 454.14609225 66.40039062 454.14526367 C68.68430638 454.14825829 70.96822164 454.15166151 73.25213623 454.15544128 C79.43330211 454.16424864 85.61445414 454.16661785 91.79562569 454.16725707 C95.65612557 454.16796873 99.51662196 454.1701051 103.37712097 454.17275429 C116.14621782 454.18151652 128.91530316 454.18617537 141.68440229 454.18542381 C142.71460753 454.18536388 142.71460753 454.18536388 143.765625 454.18530273 C144.45326799 454.18526185 145.14091098 454.18522097 145.84939164 454.18517885 C157.02157689 454.18477141 168.19372861 454.19436968 179.36590415 454.2084411 C190.84490061 454.22278492 202.32387386 454.22952914 213.80288076 454.22884732 C220.24484862 454.22859181 226.68677839 454.2314734 233.1287384 454.24202538 C239.17637757 454.25166263 245.22394184 454.25181583 251.27158356 454.24450874 C253.49608214 454.24345785 255.72058529 454.24585539 257.94507599 454.2518692 C260.96986216 454.25952034 263.99438505 454.25499059 267.01916504 454.24723816 C268.35424473 454.2549535 268.35424473 454.2549535 269.71629572 454.26282471 C274.33790265 454.45413992 274.33790265 454.45413992 278 452 C278.31591736 449.17267155 278.31591736 449.17267155 278.2784729 445.79916382 C278.2871615 444.83492396 278.2871615 444.83492396 278.29602563 443.85120451 C278.31309068 441.68769946 278.31590763 439.52440687 278.31884766 437.36083984 C278.32814137 435.81376112 278.3383092 434.26668743 278.34928894 432.71961975 C278.37666589 428.51120543 278.39176104 424.30282472 278.40471697 420.09434462 C278.42031397 415.69938251 278.44711504 411.30448939 278.4727478 406.90957642 C278.51959653 398.58337498 278.55631107 390.25716066 278.58942068 381.93089449 C278.63473345 370.68230175 278.69562787 359.43379419 278.75566864 348.18527222 C278.84988429 330.45689078 278.92321832 312.72848536 279 295 C320.91 295 362.82 295 406 295 C406 347.47 406 399.94 406 454 C427.12 454 448.24 454 470 454 C470.02258314 402.54981031 470.04049704 351.0996218 470.05106533 299.64942813 C470.05231611 293.582122 470.05361043 287.51481588 470.05493164 281.44750977 C470.05519395 280.23956371 470.05545626 279.03161765 470.05572652 277.78706717 C470.06008373 258.20063255 470.06797156 238.61420085 470.0771528 219.02776796 C470.08648792 198.94631295 470.09205531 178.86485948 470.09408849 158.78340238 C470.09546402 146.38138411 470.09981618 133.97937409 470.10791647 121.57735836 C470.11318218 113.08520655 470.1148047 104.59305904 470.11350138 96.10090572 C470.11285772 91.19355545 470.11387859 86.28621965 470.11920547 81.37887192 C470.12403852 76.89400356 470.12433928 72.40915954 470.12089889 67.92429011 C470.12047311 66.29440374 470.12176964 64.66451591 470.12488318 63.03463245 C470.12884569 60.8338796 470.12676433 58.63321676 470.12304783 56.43246555 C470.12342755 55.20558917 470.12380727 53.97871278 470.1241985 52.71465832 C470.30948784 50.08480424 470.30948784 50.08480424 469 49 C466.69810076 48.89997359 464.39305374 48.87259516 462.08898258 48.87136555 C461.35398538 48.86961251 460.61898817 48.86785947 459.86171833 48.86605331 C457.36743447 48.86135429 454.87320792 48.86386874 452.37892151 48.86628723 C450.58519519 48.86442122 448.79146928 48.86212136 446.99774402 48.85942191 C442.04417538 48.85327157 437.09062353 48.85344128 432.13705194 48.85461628 C426.80432711 48.85481948 421.47160779 48.84930935 416.1388855 48.84455872 C405.68210529 48.83623399 395.22533072 48.83350306 384.76854748 48.83294634 C376.27363978 48.83247205 367.77873394 48.8304217 359.28382683 48.82724571 C335.2280405 48.81843428 311.17225865 48.81382712 287.1164707 48.81457619 C285.16909236 48.81463612 285.16909236 48.81463612 283.18237305 48.81469727 C281.23263209 48.81475859 281.23263209 48.81475859 279.24350243 48.81482115 C258.16726648 48.81522779 237.09104839 48.80565491 216.0148176 48.7915589 C194.40215784 48.77721754 172.7895068 48.77028747 151.17684215 48.77115268 C139.03159421 48.77148542 126.88636497 48.76870479 114.74112129 48.75797462 C104.40194934 48.74889903 94.06280458 48.74667002 83.72363038 48.75348405 C78.44348684 48.75676417 73.16339557 48.75675259 67.88325691 48.7481308 C63.0566402 48.74033026 58.23011776 48.74163039 53.40350353 48.75041493 C51.65048076 48.75196427 49.89745117 48.7500806 48.14443643 48.74455485 C45.77512698 48.73757678 43.40615582 48.74272291 41.03685856 48.75111103 C39.99833297 48.74365876 39.99833297 48.74365876 38.93882707 48.73605594 C35.02961361 48.67305348 35.02961361 48.67305348 32 51 Z " fill="#141414" transform="translate(0,0)"/>
<path d="M0 0 C168.96 0 337.92 0 512 0 C512 168.96 512 337.92 512 512 C343.04 512 174.08 512 0 512 C0 343.04 0 174.08 0 0 Z M10 27 C10 178.47 10 329.94 10 486 C110.32 486 210.64 486 314 486 C314.33 485.01 314.66 484.02 315 483 C315.99 482.67 316.98 482.34 318 482 C318 481.34 318 480.68 318 480 C318.68964844 479.90203125 319.37929688 479.8040625 320.08984375 479.703125 C330.65921133 478.06587157 330.65921133 478.06587157 339.5078125 472.46484375 C341.23116407 470.77307192 342.5934879 470.24570823 344.875 469.5 C348.21927342 468.32252442 350.99405708 466.90620771 354 465 C355.49958964 464.2075563 356.99963171 463.41596846 358.5 462.625 C362.30116429 460.52932499 365.04085269 458.20574292 368 455 C370.96892119 452.18333118 372.18597419 451.06143591 376.3125 450.75 C377.199375 450.8325 378.08625 450.915 379 451 C379.03738281 451.74765625 379.07476562 452.4953125 379.11328125 453.265625 C379.17902344 454.25046875 379.24476563 455.2353125 379.3125 456.25 C379.37050781 457.22453125 379.42851562 458.1990625 379.48828125 459.203125 C379.86564765 462.44061931 379.86564765 462.44061931 383 466 C383.66 472.6 384.32 479.2 385 486 C423.61 486 462.22 486 502 486 C502 334.53 502 183.06 502 27 C339.64 27 177.28 27 10 27 Z " fill="#F0F0F0" transform="translate(0,0)"/>
<path d="M0 0 C0.69848193 0.00496818 1.39696385 0.00993636 2.1166119 0.01505509 C2.85951644 0.01244781 3.60242098 0.00984052 4.36783779 0.00715423 C6.88306446 0.000806 9.39804602 0.00884696 11.91326565 0.0167059 C13.72435468 0.0151192 15.53544312 0.01265698 17.3465299 0.00938949 C22.34346944 0.00294778 27.34032853 0.00906584 32.33726281 0.01715377 C37.71836865 0.02370937 43.09946519 0.01878697 48.48057216 0.01527157 C59.03013786 0.01021975 69.57967232 0.01588351 80.12923414 0.02512188 C92.40230435 0.03548484 104.67536774 0.03543625 116.94844151 0.0349493 C138.83967694 0.0344482 160.73089778 0.04362305 182.62212795 0.05813351 C203.88743013 0.07222188 225.15271947 0.07930432 246.41802639 0.07864133 C247.72766119 0.07860137 249.037296 0.07856141 250.38661671 0.07852025 C251.69393755 0.07847989 253.00125839 0.07843954 254.34819502 0.07839796 C278.52371989 0.07770884 302.69923928 0.08359405 326.87476239 0.09255118 C335.43942092 0.095573 344.00407844 0.09663138 352.56873745 0.09708348 C362.99937573 0.09776428 373.43000479 0.10221021 383.86063915 0.11141629 C389.18735495 0.11604644 394.51405891 0.11907532 399.84077686 0.11782208 C404.70989172 0.11673202 409.57898034 0.12021478 414.44808972 0.12747061 C416.21655895 0.12929313 417.98503087 0.12940537 419.75350022 0.12770332 C422.14354604 0.12565648 424.53350429 0.12966982 426.92354244 0.13530961 C427.62202437 0.13325429 428.32050629 0.13119897 429.04015434 0.12908137 C433.7917673 0.14978912 433.7917673 0.14978912 436.02007717 1.26394406 C436.06581034 53.20668456 436.10107384 105.14942303 436.12220783 157.09217968 C436.12470938 163.21828216 436.12729801 169.3443846 436.12994045 175.47048703 C436.13072738 177.29995634 436.13072738 177.29995634 436.13153021 179.16638462 C436.14024342 198.93967754 436.15601841 218.71295889 436.17438276 238.48624493 C436.19305637 258.76093635 436.2041885 279.03562169 436.20825416 299.31032136 C436.2110045 311.83057883 436.21970506 324.35080359 436.2359101 336.871051 C436.24644567 345.44544304 436.24968561 354.01981807 436.24707992 362.59421612 C436.24579326 367.54828823 436.24782702 372.50230299 436.25848812 377.45636502 C436.26816328 381.98510199 436.26874975 386.51374261 436.26187496 391.04248385 C436.26102428 392.6871942 436.26360978 394.33191037 436.26984353 395.97660913 C436.27778505 398.19984693 436.27359585 400.42272971 436.26617283 402.6459612 C436.26693227 403.88460891 436.26769171 405.12325663 436.26847416 406.39943913 C436.02007717 409.26394406 436.02007717 409.26394406 434.02007717 411.26394406 C431.37006801 411.52464047 431.37006801 411.52464047 427.96563381 411.53860226 C426.69413982 411.54813428 425.42264583 411.55766629 424.11262172 411.56748715 C422.71849201 411.56722573 421.32436228 411.56628871 419.93023342 411.56472531 C418.50538168 411.56861093 417.0805311 411.57294533 415.65568203 411.57771054 C412.66716425 411.5851786 409.67876458 411.5848774 406.69024318 411.57961789 C402.85882042 411.57382394 399.02788119 411.59074903 395.19653839 411.61396256 C392.25315689 411.6286891 389.3098921 411.62957308 386.36648029 411.62645283 C384.95386908 411.62696665 383.54125144 411.63221567 382.12867588 411.64226475 C380.15379304 411.65458876 378.17881277 411.64590921 376.20391506 411.63625851 C374.51752674 411.63720265 374.51752674 411.63720265 372.79706997 411.63816586 C370.02007717 411.26394406 370.02007717 411.26394406 368.1960873 409.92817441 C365.90033503 406.67934134 365.89940376 403.75836766 365.91473049 399.91879025 C365.91680256 398.82306573 365.91887462 397.7273412 365.92100948 396.5984129 C365.9285651 395.40554795 365.93612072 394.212683 365.94390529 392.98367062 C365.95013283 391.11145526 365.95013283 391.11145526 365.95648617 389.20141736 C365.97172841 385.22218839 365.99492263 381.243122 366.02007717 377.26394406 C366.02711666 376.02702313 366.03415615 374.7901022 366.04140896 373.51569882 C366.08943576 365.27033189 366.15314939 357.02513559 366.22200626 348.77991906 C366.25085703 345.29537295 366.27839152 341.81081639 366.30608791 338.32626095 C366.35831815 331.77877364 366.41166822 325.231296 366.46545976 318.68382135 C366.53288109 310.46965185 366.5987378 302.25546987 366.66460842 294.04128781 C366.78163395 279.44882771 366.90095518 264.85638753 367.02007717 250.26394406 C306.13507717 250.75894406 306.13507717 250.75894406 244.02007717 251.26394406 C244.03167873 262.730155 244.04328029 274.19636593 244.05523342 286.01003781 C244.0603398 293.25157449 244.0651948 300.49310988 244.06890529 307.73464718 C244.07484869 319.24189453 244.08185147 330.74913458 244.09551662 342.2563757 C244.10546229 350.63545575 244.11193031 359.0145299 244.11416566 367.39361569 C244.11547297 371.83310531 244.11856008 376.27257805 244.12580723 380.71206227 C244.13256559 384.88571679 244.13469451 389.05934739 244.13318485 393.23300686 C244.13346126 394.76935526 244.13546747 396.3057044 244.13928264 397.84204808 C244.14421704 399.93054023 244.14307642 402.01894063 244.14033169 404.10743466 C244.14171438 405.86483298 244.14171438 405.86483298 244.143125 407.6577343 C244.02007717 410.26394406 244.02007717 410.26394406 243.02007717 411.26394406 C239.83912571 411.3664808 236.67974236 411.40278537 233.49824184 411.39765683 C232.48607756 411.39992238 231.47391328 411.40218794 230.43107736 411.40452215 C227.01159526 411.41089383 223.59215247 411.41003077 220.17266506 411.40920773 C217.73244338 411.41219724 215.29222218 411.41559928 212.85200161 411.41938534 C206.89508683 411.42732819 200.93818774 411.4304409 194.98126913 411.43099772 C190.14149107 411.43147212 185.30171629 411.43352307 180.46193928 411.43669835 C166.75427004 411.44550927 153.04660866 411.45011704 139.33893657 411.44936787 C138.59925252 411.44932792 137.85956847 411.44928796 137.09746975 411.44924679 C136.35688741 411.44920591 135.61630507 411.44916503 134.85328083 411.44912291 C122.84634244 411.44871631 110.83943539 411.45828823 98.83250607 411.47238516 C86.51758737 411.48673014 74.20268398 411.49365638 61.88775671 411.49279138 C54.96834465 411.49245876 48.04896544 411.49523418 41.12956089 411.50596943 C34.62487623 411.51599621 28.12024933 411.51575835 21.61555713 411.5084528 C19.22174774 411.50740177 16.82793411 411.50980027 14.43413204 411.51581326 C11.17896991 411.52346329 7.92405251 411.51893512 4.66889614 411.51118222 C3.71044876 411.51632578 2.75200139 411.52146935 1.76451015 411.52676877 C0.89726265 411.52216998 0.03001515 411.51757118 -0.86351258 411.51283303 C-1.6155762 411.5130504 -2.36763982 411.51326777 -3.14249325 411.51349172 C-4.97992283 411.26394406 -4.97992283 411.26394406 -6.97992283 409.26394406 C-7.23062116 406.40815249 -7.23062116 406.40815249 -7.23160511 402.66716519 C-7.23451199 401.9782886 -7.23741888 401.28941202 -7.24041384 400.57966039 C-7.24777072 398.24822003 -7.24074429 395.9170382 -7.23389012 393.58559933 C-7.23619231 391.90650348 -7.2393672 390.22740863 -7.2433446 388.54831591 C-7.25173448 383.91622815 -7.24754842 379.28422224 -7.24137217 374.65213409 C-7.23686573 369.66366688 -7.24382241 364.67521421 -7.24933201 359.68674985 C-7.25824708 349.90721703 -7.25629462 340.12771484 -7.25050673 330.3481808 C-7.24599853 322.40344791 -7.24537368 314.45872363 -7.24755436 306.51398984 C-7.24786083 305.38526624 -7.24816729 304.25654264 -7.24848305 303.09361529 C-7.24912247 300.80097082 -7.24977089 298.50832635 -7.25042823 296.21568188 C-7.25613771 274.69390147 -7.24956395 253.17213806 -7.2388275 231.65036044 C-7.22989143 213.16493838 -7.2314433 194.67954144 -7.24066502 176.19411984 C-7.25135675 154.75180673 -7.25558833 133.30950854 -7.24944049 111.86719313 C-7.24880336 109.58276152 -7.24817462 107.2983299 -7.24755436 105.01389828 C-7.24724581 103.8897768 -7.24693726 102.76565533 -7.24661936 101.60746956 C-7.24488912 93.66798083 -7.24781458 85.72850152 -7.25251347 77.78901425 C-7.25811014 68.11960255 -7.25663154 58.45022335 -7.24595198 48.78081539 C-7.24067884 43.84293579 -7.2386663 38.90511044 -7.24525028 33.96723118 C-7.25117808 29.45336991 -7.24798752 24.93961356 -7.23729518 20.42576191 C-7.2350476 18.78649787 -7.23622752 17.1472251 -7.24104676 15.50796661 C-7.24706512 13.29208988 -7.24095546 11.07657998 -7.23160511 8.86072293 C-7.23128041 7.62619712 -7.2309557 6.39167131 -7.23062116 5.11973563 C-6.79004398 0.10096822 -4.52213204 0.03392613 0 0 Z M-3.97992283 5.26394406 C-4.28257005 8.22427621 -4.28257005 8.22427621 -4.22601849 11.77260533 C-4.22832618 12.45195087 -4.23063387 13.1312964 -4.23301148 13.83122817 C-4.23834703 16.13023624 -4.22929823 18.42896972 -4.22043186 20.72796384 C-4.22130321 22.38373556 -4.22305287 24.03950702 -4.2256102 25.69527701 C-4.23010177 30.26282436 -4.22205533 34.83027869 -4.21205407 39.39781418 C-4.20344781 44.31670711 -4.20633772 49.23559444 -4.20785862 54.15449277 C-4.20890927 62.68266432 -4.20261394 71.21080536 -4.19138294 79.73896924 C-4.17515518 92.06938404 -4.16992274 104.39978403 -4.16740696 116.73020835 C-4.16302557 136.73364946 -4.14970444 156.73707429 -4.13080174 176.74050656 C-4.11245441 196.17637812 -4.0982923 215.61224527 -4.08978611 235.04812375 C-4.08926067 236.24538353 -4.08873522 237.44264331 -4.08819385 238.67618369 C-4.08558385 244.68225496 -4.08305641 250.68832627 -4.08057004 256.6943976 C-4.05982372 306.55092434 -4.02458613 356.40743341 -3.97992283 406.26394406 C2.25797799 409.38289447 11.17038853 408.40981258 18.01678127 408.39765683 C18.97129853 408.39992238 19.9258158 408.40218794 20.90925783 408.40452215 C24.07967376 408.41080822 27.25004635 408.41003631 30.42046779 408.40920773 C32.70438355 408.41220235 34.98829881 408.41560557 37.2722134 408.41938534 C43.45337928 408.4281927 49.63453131 408.43056191 55.81570286 408.43120113 C59.67620274 408.43191279 63.53669913 408.43404916 67.39719814 408.43669835 C80.16629499 408.44546058 92.93538033 408.45011943 105.70447946 408.44936787 C106.7346847 408.44930794 106.7346847 408.44930794 107.78570217 408.44924679 C108.47334516 408.44920591 109.16098815 408.44916503 109.86946881 408.44912291 C121.04165406 408.44871547 132.21380578 408.45831374 143.38598132 408.47238516 C154.86497778 408.48672898 166.34395103 408.4934732 177.82295793 408.49279138 C184.26492579 408.49253587 190.70685556 408.49541746 197.14881557 408.50596943 C203.19645474 408.51560669 209.24401901 408.51575989 215.29166073 408.5084528 C217.51615931 408.50740191 219.74066246 408.50979945 221.96515316 408.51581326 C224.98993933 408.5234644 228.01446222 408.51893465 231.03924221 408.51118222 C232.37432189 408.51889756 232.37432189 408.51889756 233.73637289 408.52676877 C238.35797982 408.71808398 238.35797982 408.71808398 242.02007717 406.26394406 C242.33599453 403.43661561 242.33599453 403.43661561 242.29855007 400.06310788 C242.30723867 399.09886802 242.30723867 399.09886802 242.3161028 398.11514857 C242.33316785 395.95164352 242.3359848 393.78835093 242.33892483 391.6247839 C242.34821854 390.07770518 242.35838637 388.53063149 242.36936611 386.98356381 C242.39674305 382.77514949 242.4118382 378.56676878 242.42479414 374.35828868 C242.44039114 369.96332657 242.46719221 365.56843345 242.49282497 361.17352048 C242.5396737 352.84731904 242.57638824 344.52110472 242.60949785 336.19483855 C242.65481062 324.94624581 242.71570503 313.69773825 242.77574581 302.44921628 C242.86996145 284.72083484 242.94329549 266.99242942 243.02007717 249.26394406 C284.93007717 249.26394406 326.84007717 249.26394406 370.02007717 249.26394406 C370.02007717 301.73394406 370.02007717 354.20394406 370.02007717 408.26394406 C391.14007717 408.26394406 412.26007717 408.26394406 434.02007717 408.26394406 C434.04266031 356.81375437 434.06057421 305.36356586 434.0711425 253.91337219 C434.07239328 247.84606606 434.07368759 241.77875994 434.07500881 235.71145383 C434.07527112 234.50350777 434.07553343 233.29556171 434.07580369 232.05101123 C434.0801609 212.46457661 434.08804873 192.87814491 434.09722997 173.29171202 C434.10656509 153.21025701 434.11213248 133.12880354 434.11416566 113.04734644 C434.11554119 100.64532817 434.11989335 88.24331815 434.12799364 75.84130242 C434.13325935 67.34915061 434.13488187 58.8570031 434.13357855 50.36484978 C434.13293489 45.45749951 434.13395576 40.55016371 434.13928264 35.64281598 C434.14411569 31.15794762 434.14441645 26.6731036 434.14097606 22.18823417 C434.14055028 20.5583478 434.14184681 18.92845997 434.14496035 17.29857651 C434.14892286 15.09782366 434.1468415 12.89716082 434.143125 10.69640961 C434.14350472 9.46953323 434.14388444 8.24265684 434.14427567 6.97860238 C434.32956501 4.3487483 434.32956501 4.3487483 433.02007717 3.26394406 C430.71817793 3.16391765 428.41313091 3.13653922 426.10905975 3.13530961 C425.37406255 3.13355657 424.63906534 3.13180353 423.8817955 3.12999737 C421.38751164 3.12529835 418.89328509 3.1278128 416.39899868 3.13023129 C414.60527236 3.12836528 412.81154645 3.12606542 411.01782119 3.12336597 C406.06425255 3.11721563 401.1107007 3.11738534 396.15712911 3.11856034 C390.82440428 3.11876354 385.49168496 3.11325341 380.15896267 3.10850278 C369.70218246 3.10017804 359.24540789 3.09744712 348.78862465 3.0968904 C340.29371695 3.09641611 331.79881111 3.09436576 323.303904 3.09118977 C299.24811767 3.08237834 275.19233582 3.07777118 251.13654787 3.07852025 C249.18916953 3.07858018 249.18916953 3.07858018 247.20245022 3.07864133 C245.25270926 3.07870265 245.25270926 3.07870265 243.2635796 3.07876521 C222.18734365 3.07917185 201.11112555 3.06959897 180.03489477 3.05550296 C158.42223501 3.0411616 136.80958397 3.03423153 115.19691932 3.03509673 C103.05167137 3.03542948 90.90644214 3.03264885 78.76119846 3.02191868 C68.42202651 3.01284309 58.08288174 3.01061408 47.74370755 3.01742811 C42.46356401 3.02070823 37.18347274 3.02069665 31.90333408 3.01207486 C27.07671737 3.00427432 22.25019493 3.00557445 17.4235807 3.01435899 C15.67055793 3.01590833 13.91752834 3.01402466 12.1645136 3.00849891 C9.79520415 3.00152084 7.42623299 3.00666697 5.05693573 3.01505509 C4.01841014 3.00760282 4.01841014 3.00760282 2.95890424 3 C-0.95030922 2.93699754 -0.95030922 2.93699754 -3.97992283 5.26394406 Z " fill="#474747" transform="translate(35.9799228310585,45.73605594038963)"/>
<path d="M0 0 C1.03852559 0.00745227 1.03852559 0.00745227 2.09803149 0.01505509 C2.83448214 0.01244781 3.57093278 0.00984052 4.32970011 0.00715423 C6.82296324 0.00080622 9.31597906 0.00884682 11.80923507 0.0167059 C13.6045376 0.01511919 15.39983954 0.01265697 17.1951398 0.00938949 C22.1484039 0.00294791 27.10158685 0.00906573 32.05484566 0.01715377 C37.3888972 0.02370943 42.72293935 0.01878698 48.05699202 0.01527157 C58.51397896 0.01021988 68.97093438 0.01588327 79.4279174 0.02512188 C91.59229108 0.03548435 103.75665787 0.03543626 115.92103513 0.0349493 C137.61708709 0.03444821 159.31312433 0.04362296 181.00917098 0.05813351 C202.08729871 0.0722236 223.16541348 0.07930425 244.24354598 0.07864133 C246.19092432 0.07858139 246.19092432 0.07858139 248.17764363 0.07852025 C249.47359745 0.07847989 250.76955127 0.07843954 252.10477641 0.07839796 C276.0653152 0.07770897 300.02584846 0.08359306 323.98638545 0.09255118 C332.4763728 0.09557376 340.96635913 0.09663147 349.45634696 0.09708348 C359.79442144 0.09776404 370.13248661 0.10220665 380.47055713 0.11141629 C385.75056793 0.11604863 391.03056677 0.11907452 396.31057975 0.11782208 C401.13584905 0.11673296 405.96109182 0.12020886 410.78635558 0.12747061 C412.54000226 0.12929492 414.29365166 0.12940367 416.04729847 0.12770332 C418.41494968 0.12566036 420.78251209 0.12966256 423.15015551 0.13530961 C424.4701184 0.13601403 425.79008128 0.13671846 427.15004304 0.13744423 C430.06117293 0.26394406 430.06117293 0.26394406 431.06117293 1.26394406 C431.15918573 3.40625059 431.1848845 5.55186227 431.18422076 7.69640961 C431.18537461 8.37966643 431.18652845 9.06292324 431.18771726 9.7668848 C431.19039052 12.08514723 431.18585598 14.40334193 431.18142745 16.72160092 C431.18186301 18.38888349 431.18273763 20.05616599 431.18401662 21.72344813 C431.18626462 26.32743325 431.18223614 30.93139535 431.17723855 35.53537753 C431.1729386 40.49177982 431.17438015 45.4481807 431.17514083 50.40458432 C431.17566635 58.99933502 431.17251658 67.59407815 431.16690299 76.18882695 C431.15879184 88.61554369 431.15617317 101.04225676 431.154915 113.46897586 C431.15272387 133.62825445 431.14606215 153.787529 431.13661239 173.94680539 C431.12743983 193.53502133 431.12035823 213.12323617 431.11610457 232.71145383 C431.11571049 234.52117906 431.11571049 234.52117906 431.11530844 236.3674644 C431.11400345 242.41975855 431.11273973 248.4720527 431.11149654 254.52434686 C431.10112204 304.7708822 431.08322775 355.0174126 431.06117293 405.26394406 C409.94117293 405.26394406 388.82117293 405.26394406 367.06117293 405.26394406 C367.06117293 352.79394406 367.06117293 300.32394406 367.06117293 246.26394406 C325.15117293 246.26394406 283.24117293 246.26394406 240.06117293 246.26394406 C239.98769637 263.22929562 239.98769637 263.22929562 239.91273543 280.53738156 C239.87736904 287.68322274 239.84150242 294.82905555 239.80336043 301.97488156 C239.74285313 313.32837818 239.68444568 324.68185896 239.63929793 336.03542843 C239.60641288 344.30286413 239.56660119 352.57023208 239.51838288 360.83759311 C239.49308306 365.21730059 239.4713122 369.59696293 239.45782897 373.97672406 C239.44504004 378.0954632 239.42302035 382.21404779 239.39378974 386.33270207 C239.38468905 387.84764891 239.37901796 389.36262065 239.37695929 390.87759343 C239.3736542 392.93960906 239.3582255 395.00118179 239.33964583 397.06310788 C239.33411507 398.21903628 239.32858432 399.37496468 239.32288596 400.56592122 C239.06117293 403.26394406 239.06117293 403.26394406 237.06117293 405.26394406 C234.03737112 405.45986023 231.10522678 405.52866287 228.08033797 405.51118222 C226.66728196 405.51480384 226.66728196 405.51480384 225.22567937 405.51849863 C222.04902992 405.52416268 218.87257917 405.51545189 215.69593856 405.50686398 C213.42618296 405.50793625 211.15642762 405.50987411 208.88667342 405.51261654 C202.70447255 405.51747905 196.52234347 405.50978997 190.34015128 405.4996635 C183.87456001 405.49089737 177.40897108 405.49264022 170.94337508 405.49302426 C160.07507516 405.49208641 149.20680706 405.48344328 138.33851668 405.46975461 C127.16793863 405.45569253 115.99738497 405.4485827 104.82679793 405.44924679 C103.79659269 405.44930673 103.79659269 405.44930673 102.74557522 405.44936787 C102.05994084 405.44940823 101.37430646 405.44944858 100.66789529 405.44949016 C87.30179975 405.45021652 73.93571716 405.44321575 60.56962439 405.43404356 C56.7206815 405.43191461 52.87174051 405.43120268 49.02279708 405.43080464 C42.96211936 405.42979729 36.90146716 405.42366862 30.84079787 405.4136385 C28.61966909 405.41072621 26.39853737 405.40948555 24.17740676 405.41006604 C21.13753671 405.41055969 18.09773721 405.40487197 15.05787703 405.39765683 C14.18566968 405.39920543 13.31346233 405.40075403 12.41482446 405.40234956 C-2.78053358 405.3430908 -2.78053358 405.3430908 -6.93882707 403.26394406 C-6.98456042 352.21296228 -7.01982383 301.16198256 -7.04095773 250.11098433 C-7.04345927 244.09003077 -7.0460479 238.06907725 -7.04869035 232.04812375 C-7.04947728 230.25005589 -7.04947728 230.25005589 -7.05028011 228.41566344 C-7.05899328 208.98186305 -7.07476825 189.54807444 -7.09313266 170.11428104 C-7.11180638 150.18763345 -7.12293842 130.26099205 -7.12700406 110.33433607 C-7.12975438 98.02904461 -7.1384548 85.72378643 -7.15466 73.41850521 C-7.16519572 64.99128658 -7.16843548 56.56408528 -7.16582982 48.13686053 C-7.16454319 43.26784923 -7.16657666 38.39889627 -7.17723802 33.52989522 C-7.1869135 29.07887548 -7.18749944 24.62795376 -7.18062486 20.17692967 C-7.17977421 18.56048289 -7.18235944 16.9440302 -7.18859343 15.32759522 C-7.19653554 13.14247606 -7.1923454 10.95771807 -7.18492272 8.77260533 C-7.18568217 7.55522195 -7.18644161 6.33783857 -7.18722406 5.08356479 C-6.74903342 0.10954557 -4.47815733 0.03388935 0 0 Z M-4.93882707 3.26394406 C-5.03680517 5.3802005 -5.0625388 7.49979955 -5.0618749 9.61832276 C-5.06302874 10.2931377 -5.06418258 10.96795265 -5.06537139 11.66321653 C-5.06804459 13.95276223 -5.06351018 16.24223936 -5.05908158 18.53178158 C-5.05951714 20.17844015 -5.06039177 21.82509866 -5.06167075 23.47175679 C-5.06391873 28.01873415 -5.05989031 32.56568819 -5.05489269 37.11266258 C-5.05059269 42.0077146 -5.05203429 46.9027652 -5.05279496 51.79781857 C-5.05332049 60.28616469 -5.05017074 68.77450314 -5.04455712 77.26284733 C-5.03644594 89.53571863 -5.0338273 101.80858621 -5.03256913 114.0814599 C-5.03037801 133.99116701 -5.0237163 153.90087003 -5.01426652 173.81057492 C-5.00509396 193.15627784 -4.99801236 212.50197964 -4.99375871 231.84768429 C-4.99349598 233.03923281 -4.99323326 234.23078132 -4.99296258 235.45843736 C-4.99165758 241.43581115 -4.99039386 247.41318495 -4.98915067 253.39055875 C-4.97877619 303.01502334 -4.96115624 352.6394835 -4.93882707 402.26394406 C2.10047948 402.9995778 9.03961789 403.40808541 16.11566207 403.38419858 C17.06427778 403.385053 18.0128935 403.38590743 18.99025515 403.38678774 C22.13460114 403.38842068 25.27889249 403.38295735 28.42323348 403.37746945 C30.69083702 403.37718708 32.95844066 403.37734629 35.22604415 403.37791196 C41.35743669 403.37819798 47.48880953 403.37233271 53.6201975 403.365338 C60.0370298 403.35907205 66.45386259 403.3584981 72.87069747 403.35731259 C83.63300525 403.3545611 94.39530445 403.34832172 105.15760848 403.33938351 C116.23801176 403.33019074 127.31841309 403.32311905 138.39881942 403.3188757 C139.08293844 403.31861298 139.76705747 403.31835025 140.47190737 403.31807957 C143.90426677 403.31677444 147.33662618 403.31551075 150.7689856 403.31426767 C179.19971966 403.30391746 207.63044591 403.28624395 236.06117293 403.26394406 C236.06540487 402.45057615 236.06963681 401.63720824 236.07399699 400.79919282 C236.17715779 381.03737197 236.28577337 361.27558772 236.40051219 341.51383057 C236.45586577 331.95732179 236.50935121 322.40080927 236.55848739 312.84426633 C236.60130313 304.51790053 236.64757442 296.19156247 236.69805148 287.86523947 C236.72467352 283.45371176 236.74952703 279.04218963 236.77024695 274.63062993 C236.78978075 270.48321324 236.81391455 266.33584943 236.84166381 262.18847981 C236.85105157 260.66181782 236.8587206 259.1351442 236.86459205 257.60846463 C236.87282409 255.53308102 236.88709219 253.45782677 236.90295455 251.38248959 C236.9094071 250.21826505 236.91585965 249.05404051 236.92250773 247.85453644 C237.06117293 245.26394406 237.06117293 245.26394406 238.06117293 244.26394406 C239.69926777 244.16569217 241.3416126 244.13762447 242.9826512 244.13696042 C244.58110633 244.13273068 244.58110633 244.13273068 246.21185347 244.1284155 C247.98070655 244.13145184 247.98070655 244.13145184 249.78529403 244.13454953 C251.01932464 244.13279721 252.25335524 244.13104489 253.52478072 244.12923947 C256.91946409 244.12558082 260.31408687 244.12645493 263.70876691 244.12961856 C267.25613756 244.13214329 270.80350555 244.1298042 274.3508763 244.12823239 C280.31127941 244.12641055 286.27167014 244.12881688 292.23207137 244.13357297 C299.12631053 244.13901063 306.0205201 244.13725659 312.91475853 244.13174656 C318.82730576 244.12720989 324.73984407 244.12656775 330.65239248 244.12918523 C334.18648852 244.13074559 337.72057066 244.13094845 341.25466582 244.12764874 C345.19587652 244.12422637 349.13705404 244.12896887 353.07826278 244.13454953 C354.84104316 244.13151318 354.84104316 244.13151318 356.63943526 244.1284155 C358.24634986 244.13264523 358.24634986 244.13264523 359.88572738 244.13696042 C360.81820485 244.13733744 361.75068232 244.13771447 362.71141669 244.13810292 C365.06117293 244.26394406 365.06117293 244.26394406 368.06117293 245.26394406 C369.12729037 253.5380183 369.19731844 261.74585474 369.17469832 270.07693234 C369.17441571 271.54636897 369.17457562 273.01580573 369.17514083 274.48524228 C369.17542593 278.4452802 369.16957585 282.40528739 369.16256687 286.36531821 C369.15628531 290.51462051 369.15572575 294.66392363 369.15454146 298.81322995 C369.15144225 306.65754042 369.14324797 314.50183683 369.13319197 322.34614113 C369.12198692 331.28211401 369.11650934 340.21808759 369.11149654 349.15406576 C369.10106409 367.52403314 369.08349211 385.89398747 369.06117293 404.26394406 C376.71924508 404.31023574 384.37730277 404.34579709 392.03548285 404.3675684 C395.59129692 404.3780163 399.14701543 404.39219365 402.70277449 404.41482297 C406.78839593 404.44066238 410.87391662 404.4504085 414.95961043 404.45925656 C416.23984084 404.46957913 417.52007125 404.4799017 418.83909652 404.49053708 C420.61070647 404.49076367 420.61070647 404.49076367 422.41810653 404.49099484 C423.46179397 404.49543606 424.5054814 404.49987729 425.58079574 404.50445309 C428.23669061 404.51213408 428.23669061 404.51213408 430.06117293 402.26394406 C430.36380731 399.31049844 430.36380731 399.31049844 430.30726859 395.77090016 C430.31073012 394.75441442 430.31073012 394.75441442 430.31426159 393.71739361 C430.31959707 391.42412869 430.31054838 389.13113907 430.30168197 386.83788815 C430.30255331 385.18624122 430.30430297 383.53459456 430.3068603 381.88294938 C430.31135185 377.32680351 430.30330546 372.7707509 430.29330418 368.21461692 C430.28469788 363.30799405 430.28758783 358.40137679 430.28910872 353.4947485 C430.29015937 344.98785784 430.28386406 336.48099777 430.27263305 327.97411481 C430.25640526 315.67446909 430.25117283 303.37483822 430.24865706 291.07518296 C430.24427568 271.12165613 430.23095456 251.16814562 430.21205184 231.21462765 C430.1937045 211.82725869 430.17954239 192.43989416 430.17103621 173.05251828 C430.17051077 171.85824549 430.16998532 170.66397271 430.16944395 169.43350984 C430.16683395 163.44242264 430.16430651 157.4513354 430.16182014 151.46024814 C430.14107383 101.7281355 430.10583626 51.99604057 430.06117293 2.26394406 C374.78916071 2.2410802 319.51714897 2.22344712 264.24513296 2.21287873 C257.72718859 2.21162795 251.20924424 2.21033363 244.69129989 2.20901242 C242.74480313 2.20861895 242.74480313 2.20861895 240.75898322 2.20821754 C219.71758025 2.20386028 198.67618001 2.19597243 177.63477866 2.18679126 C156.06170726 2.17745626 134.4886373 2.17188878 112.91556397 2.16985556 C99.59226199 2.16848002 86.26896768 2.16412772 72.94566806 2.15602759 C63.82277282 2.15076203 54.69988158 2.14913933 45.57698492 2.15044268 C40.30508707 2.15108636 35.03320269 2.15006522 29.76130721 2.14473858 C24.94336327 2.13990586 20.12544198 2.13960457 15.30749705 2.14304516 C13.55648096 2.14347098 11.80546351 2.14217418 10.05445013 2.13906088 C7.69032484 2.13509894 5.32628336 2.13717937 2.9621596 2.14089623 C1.64415034 2.14051651 0.32614107 2.14013679 -1.03180787 2.13974556 C-3.83140648 1.93109692 -3.83140648 1.93109692 -4.93882707 3.26394406 Z " fill="#B3B3B3" transform="translate(38.9388270676136,48.73605594038963)"/>
<path d="M0 0 C1.04039429 -0.00281982 2.08078857 -0.00563965 3.15270996 -0.00854492 C4.30389313 -0.00652069 5.45507629 -0.00449646 6.6411438 -0.00241089 C8.44829865 -0.00503937 8.44829865 -0.00503937 10.29196167 -0.00772095 C13.60606961 -0.01137951 16.9201155 -0.01050554 20.23422003 -0.00734186 C23.69750905 -0.00481704 27.16079535 -0.00715625 30.62408447 -0.00872803 C36.44325234 -0.01054985 42.26240754 -0.00814359 48.08157349 -0.00338745 C54.81221817 0.00205009 61.54283254 0.00029626 68.27347648 -0.00521386 C74.04589754 -0.00975072 79.81830947 -0.01039257 85.59073174 -0.00777519 C89.04099088 -0.00621492 92.49123576 -0.00601173 95.94149399 -0.00931168 C99.78930592 -0.01273438 103.63708388 -0.00799124 107.4848938 -0.00241089 C108.6320285 -0.00443512 109.77916321 -0.00645935 110.96105957 -0.00854492 C112.53011047 -0.00431519 112.53011047 -0.00431519 114.13085938 0 C115.04121382 0.00037703 115.95156826 0.00075405 116.8895092 0.0011425 C119.19241333 0.12698364 119.19241333 0.12698364 122.19241333 1.12698364 C122.52241333 53.92698364 122.85241333 106.72698364 123.19241333 161.12698364 C143.98241333 161.45698364 164.77241333 161.78698364 186.19241333 162.12698364 C186.19241333 162.45698364 186.19241333 162.78698364 186.19241333 163.12698364 C177.89969424 163.19646206 169.60709654 163.24978365 161.31415844 163.28242016 C157.46349502 163.29808325 153.61303058 163.31933287 149.76248169 163.353302 C146.04719904 163.3858731 142.33210789 163.40383181 138.6166935 163.41161537 C137.19847918 163.41716298 135.78027546 163.42799608 134.36214256 163.44417381 C132.37752866 163.46591554 130.39272247 163.46720877 128.4079895 163.46755981 C126.71255257 163.47755257 126.71255257 163.47755257 124.98286438 163.48774719 C122.19241333 163.12698364 122.19241333 163.12698364 120.36643982 161.79319763 C118.07511825 158.54128459 118.07173704 155.62212837 118.08706665 151.78182983 C118.08913872 150.68610531 118.09121078 149.59038078 118.09334564 148.46145248 C118.10090126 147.26858753 118.10845688 146.07572258 118.11624146 144.84671021 C118.12246899 142.97449484 118.12246899 142.97449484 118.12882233 141.06445694 C118.14406457 137.08522798 118.16725879 133.10616158 118.19241333 129.12698364 C118.19945282 127.89006271 118.20649231 126.65314178 118.21374512 125.3787384 C118.26177192 117.13337147 118.32548555 108.88817518 118.39434242 100.64295864 C118.42319319 97.15841253 118.45072768 93.67385598 118.47842407 90.18930054 C118.53065431 83.64181323 118.58400438 77.09433558 118.63779593 70.54686093 C118.70521725 62.33269143 118.77107397 54.11850945 118.83694458 45.90432739 C118.95397011 31.31186729 119.07329134 16.71942711 119.19241333 2.12698364 C58.30741333 2.62198364 58.30741333 2.62198364 -3.80758667 3.12698364 C-3.79598511 14.59319458 -3.78438354 26.05940552 -3.77243042 37.87307739 C-3.76732404 45.11461407 -3.76246904 52.35614946 -3.75875854 59.59768677 C-3.75281515 71.10493412 -3.74581237 82.61217417 -3.73214722 94.11941528 C-3.72220155 102.49849533 -3.71573352 110.87756949 -3.71349818 119.25665528 C-3.71219087 123.69614489 -3.70910375 128.13561763 -3.70185661 132.57510185 C-3.69509825 136.74875637 -3.69296933 140.92238697 -3.69447899 145.09604645 C-3.69420258 146.63239484 -3.69219636 148.16874398 -3.6883812 149.70508766 C-3.6834468 151.79357982 -3.68458742 153.88198021 -3.68733215 155.97047424 C-3.68594946 157.72787257 -3.68594946 157.72787257 -3.68453884 159.52077389 C-3.80758667 162.12698364 -3.80758667 162.12698364 -4.80758667 163.12698364 C-7.99310615 163.22507072 -11.15696449 163.25688437 -14.34288025 163.24723816 C-15.35645566 163.24809258 -16.37003107 163.24894701 -17.41432089 163.24982733 C-20.83847713 163.25148518 -24.26258527 163.24595578 -27.68673706 163.24050903 C-30.13020324 163.2402272 -32.57366949 163.24038482 -35.01713562 163.24095154 C-40.29206533 163.24117986 -45.56697984 163.23832847 -50.84190559 163.2327137 C-58.46864459 163.22460086 -66.09537761 163.2219837 -73.72212046 163.22072571 C-86.09476948 163.21853485 -98.46741192 163.21187384 -110.84005737 163.2024231 C-122.86186693 163.19324986 -134.88367471 163.18616859 -146.90548706 163.18191528 C-148.01625533 163.1815212 -148.01625533 163.1815212 -149.14946336 163.18111915 C-152.86424239 163.17981415 -156.57902143 163.17855044 -160.29380047 163.17730725 C-191.13173399 163.16693358 -221.96965933 163.14924022 -252.80758667 163.12698364 C-253.46758667 161.80698364 -254.12758667 160.48698364 -254.80758667 159.12698364 C-253.9495663 159.37050401 -253.9495663 159.37050401 -253.07421219 159.61894399 C-250.81110173 160.12619578 -248.85654466 160.25339196 -246.54157829 160.2556181 C-245.69186577 160.25884254 -244.84215324 160.26206699 -243.96669185 160.26538914 C-243.03809797 160.26384054 -242.10950409 160.26229194 -241.152771 160.26069641 C-239.66743164 160.26409475 -239.66743164 160.26409475 -238.15208542 160.26756173 C-234.8248384 160.27390595 -231.49763206 160.27307211 -228.17037964 160.27224731 C-225.78882799 160.27523846 -223.40727684 160.27864088 -221.02572632 160.28242493 C-215.22363154 160.29035234 -209.42154917 160.29347966 -203.61944924 160.2940373 C-198.90560105 160.29451235 -194.19175622 160.2965665 -189.47790909 160.29973793 C-176.11998943 160.30854248 -162.76207782 160.31315738 -149.40415524 160.31240746 C-148.68408937 160.3123675 -147.9640235 160.31232754 -147.22213745 160.31228638 C-146.14072423 160.31222506 -146.14072423 160.31222506 -145.03746428 160.3121625 C-133.34110954 160.31175563 -121.64478693 160.32133594 -109.94844149 160.33542474 C-97.94531118 160.34976938 -85.94219657 160.35669605 -73.93905747 160.35583097 C-67.19742419 160.35549843 -60.45582464 160.35827041 -53.71419907 160.36900902 C-47.37936896 160.37864777 -41.04461037 160.3787984 -34.70977783 160.37149239 C-32.3788556 160.3704414 -30.04792902 160.37283956 -27.71701431 160.37885284 C-24.54740216 160.38650328 -21.37804131 160.38197451 -18.20843506 160.3742218 C-17.27537973 160.37936536 -16.34232441 160.38450893 -15.38099468 160.38980836 C-14.53649765 160.38520956 -13.69200062 160.38061077 -12.82191277 160.37587261 C-11.72359652 160.37619866 -11.72359652 160.37619866 -10.60309207 160.3765313 C-8.55430653 160.27572573 -8.55430653 160.27572573 -6.80758667 158.12698364 C-6.49455681 155.30254622 -6.49455681 155.30254622 -6.5358429 151.93287659 C-6.53075606 151.29075558 -6.52566922 150.64863458 -6.52042824 149.98705536 C-6.50571286 147.82587434 -6.50523279 145.66492032 -6.50460815 143.50369263 C-6.49695065 141.95823724 -6.488405 140.41278604 -6.47903442 138.86734009 C-6.46072855 135.53499832 -6.44870747 132.20271299 -6.4414959 128.8703289 C-6.43003756 123.60645782 -6.40459449 118.34271193 -6.37718201 113.0789032 C-6.33549761 104.75742912 -6.30309756 96.43594911 -6.27470785 88.11442 C-6.22375321 73.20220169 -6.16171479 58.29003512 -6.08936745 43.37790543 C-6.06438238 38.13967551 -6.04497923 32.90146225 -6.02998531 27.66319454 C-6.01981392 24.41162487 -6.00566832 21.16008105 -5.99050903 17.90853119 C-5.98432971 16.39476439 -5.97988383 14.88098942 -5.97725105 13.3672123 C-5.97346633 11.30949728 -5.96310459 9.25179743 -5.9523468 7.19410706 C-5.94849189 6.0398545 -5.94463697 4.88560194 -5.94066525 3.69637203 C-5.71205075 -0.71755742 -3.95363366 0.00163876 0 0 Z " fill="#464545" transform="translate(283.8075866699219,293.8730163574219)"/>
<path d="M0 0 C1.62109375 1.1328125 1.62109375 1.1328125 3 3 C3.44140625 5.8828125 3.44140625 5.8828125 3.5625 9.125 C3.64514087 12.28203352 3.64514087 12.28203352 4 15 C4.66 15.33 5.32 15.66 6 16 C6 17.32 6 18.64 6 20 C6.66 20 7.32 20 8 20 C8 25.28 8 30.56 8 36 C64.925 35.505 64.925 35.505 123 35 C123 36.32 123 37.64 123 39 C84.39 39 45.78 39 6 39 C5.34 32.4 4.68 25.8 4 19 C3.01 17.68 2.02 16.36 1 15 C0.48828125 12.203125 0.48828125 12.203125 0.3125 9.25 C0.24675781 8.26515625 0.18101562 7.2803125 0.11328125 6.265625 C0.07589844 5.51796875 0.03851563 4.7703125 0 4 C-3.32258548 3.4036385 -5.38802027 3.61632359 -8.26171875 5.41796875 C-11.3506129 7.81249992 -14.2682937 10.22439132 -16.953125 13.0703125 C-19.21167508 15.19955628 -21.31601462 16.3253202 -24.125 17.625 C-26.9261101 18.92996821 -28.80615731 19.80615731 -31 22 C-32.98343396 22.80432248 -34.9934905 23.45581465 -37.02734375 24.12109375 C-39.22346017 25.09956146 -40.32719101 26.30070855 -42 28 C-46.78031468 30.43172529 -51.69596751 31.38799625 -57 32 C-58.33917261 32.30903983 -59.67653254 32.62942911 -61 33 C-61 33.66 -61 34.32 -61 35 C-62.485 35.495 -62.485 35.495 -64 36 C-64.33 36.99 -64.66 37.98 -65 39 C-165.32 39 -265.64 39 -369 39 C-369 37.68 -369 36.36 -369 35 C-368.39168488 35.00037972 -367.78336977 35.00075944 -367.15662086 35.00115067 C-331.06510082 35.02355171 -294.97358181 35.04069816 -258.88205623 35.05106533 C-254.5439294 35.05231597 -250.20580259 35.05361029 -245.86767578 35.05493164 C-245.00406984 35.05519395 -244.14046391 35.05545626 -243.25068809 35.05572652 C-229.28598014 35.06007222 -215.32127633 35.06795372 -201.35657082 35.0771528 C-187.01664612 35.08651993 -172.67672357 35.09206209 -158.33679593 35.09408849 C-149.49557641 35.09545737 -140.6543686 35.09977348 -131.81315269 35.10791647 C-125.74202711 35.11322169 -119.67090755 35.11479573 -113.59977983 35.11350138 C-110.10242725 35.11286388 -106.60509504 35.11380837 -103.10774612 35.11920547 C-99.302843 35.12421329 -95.49798908 35.12297231 -91.69308472 35.12025452 C-90.60548949 35.12316736 -89.51789427 35.1260802 -88.39734161 35.12908131 C-80.56433217 35.11405722 -72.80571177 34.6400358 -65 34 C-65 33.34 -65 32.68 -65 32 C-58.68472722 29.75219104 -52.52027531 28.22227156 -45.91796875 27.0390625 C-42.32184259 25.75851423 -41.21650126 24.03209696 -39 21 C-37.02111039 20.27306096 -35.02045442 19.60183749 -33 19 C-32.319375 18.2575 -32.319375 18.2575 -31.625 17.5 C-30 16 -30 16 -26.25 15.3125 C-21.53177454 14.2946744 -19.64746477 11.71033895 -16.73046875 8.0390625 C-12.38188732 2.91500041 -6.90347588 -0.69034759 0 0 Z " fill="#272727" transform="translate(379,447)"/>
<path d="M0 0 C162.36 0 324.72 0 492 0 C492 1.32 492 2.64 492 4 C329.64 3.67 167.28 3.34 0 3 C0 2.01 0 1.02 0 0 Z " fill="#282727" transform="translate(10,27)"/>
<path d="M0 0 C0.99 0 1.98 0 3 0 C3 146.52 3 293.04 3 444 C2.01 444 1.02 444 0 444 C0 297.48 0 150.96 0 0 Z " fill="#292828" transform="translate(10,35)"/>
<path d="M0 0 C0.69263624 0.00525403 1.38527248 0.01050805 2.0988977 0.01592129 C3.20402306 0.01245976 3.20402306 0.01245976 4.33147418 0.0089283 C6.8257504 0.00359106 9.31977373 0.01264301 11.81403708 0.02150792 C13.61005197 0.02063661 15.40606661 0.01888702 17.20207989 0.01632959 C22.15727802 0.01183733 27.11239041 0.0198854 32.0675776 0.02988571 C37.40365233 0.03849099 42.7397219 0.03560213 48.07580161 0.03408116 C57.3275236 0.03303045 66.57921746 0.03932643 75.83093238 0.05055684 C89.2074961 0.06678375 102.58404616 0.07201696 115.96061866 0.07453282 C137.66114533 0.07891435 159.36165699 0.09223583 181.06217551 0.11113805 C202.14713568 0.12948502 223.23209179 0.14364731 244.31705832 0.15215367 C246.26528477 0.15294184 246.26528477 0.15294184 248.25286932 0.15374593 C254.76839902 0.15635593 261.28392875 0.15888337 267.7994585 0.16136974 C321.88606464 0.18211648 375.97265452 0.21735443 430.05924582 0.26201695 C430.05924582 0.59201695 430.05924582 0.92201695 430.05924582 1.26201695 C429.14129471 1.2637532 428.2233436 1.26548945 427.27757579 1.26727831 C372.93277373 1.3701945 318.58798407 1.47828266 264.24320585 1.59313389 C257.72526157 1.6069043 251.2073172 1.62063127 244.68937278 1.63433141 C243.39170828 1.63705971 242.09404378 1.63978801 240.75705611 1.64259899 C219.71565955 1.68673426 198.67425759 1.72734708 177.63285155 1.76666956 C156.05977167 1.80706363 134.48670188 1.85121651 112.91363686 1.8988955 C99.59034233 1.92822196 86.2670486 1.95457853 72.94374096 1.97719593 C63.82083789 1.992963 54.69794718 2.01236454 45.57505781 2.03468537 C40.30316584 2.04747478 35.03128345 2.05860319 29.7593801 2.06543607 C24.94142639 2.07171574 20.12350563 2.08251636 15.30556994 2.09705026 C13.55455788 2.10150968 11.80354051 2.10425048 10.05252302 2.10517894 C7.68838735 2.10667344 5.32434899 2.1141962 2.9602325 2.12335175 C0.9832186 2.12733882 0.9832186 2.12733882 -1.03373498 2.13140643 C-3.83327778 1.92965512 -3.83327778 1.92965512 -4.94075418 3.26201695 C-5.04379892 5.38856144 -5.07477228 7.51859585 -5.07941937 9.64763039 C-5.08226159 10.32582209 -5.08510381 11.00401378 -5.08803216 11.70275673 C-5.0964369 14.00377714 -5.09765185 16.30474758 -5.09897256 18.60578221 C-5.10353399 20.26069144 -5.10853338 21.91559952 -5.11393613 23.57050622 C-5.12757444 28.14027543 -5.13495197 32.71003716 -5.14136279 37.27982146 C-5.14934185 42.19942254 -5.16304814 47.11900793 -5.17607522 52.03859776 C-5.1978735 60.56949756 -5.21600567 69.10039891 -5.23168015 77.63131207 C-5.25434835 89.96573178 -5.28249535 102.30013415 -5.31199943 114.63453918 C-5.35971284 134.64406514 -5.40296683 154.65359818 -5.44343972 174.66314 C-5.48277561 194.10585394 -5.52419723 213.54856158 -5.56843972 232.991265 C-5.57252613 234.78754875 -5.57252613 234.78754875 -5.57669509 236.62012107 C-5.59037426 242.62746309 -5.60409459 248.63480501 -5.6178354 254.64214689 C-5.73185905 304.51542378 -5.83865534 354.38871431 -5.94075418 404.26201695 C1.47814083 404.96000678 8.82104748 405.41179899 16.27195334 405.42023534 C17.70228388 405.4276423 17.70228388 405.4276423 19.16150999 405.4351989 C22.31654798 405.45040296 25.47156591 405.45888751 28.62662864 405.46733922 C30.90423354 405.47693123 33.18183671 405.48694206 35.45943809 405.497338 C41.61347875 405.52424985 47.76752697 405.54533324 53.92159343 405.56533998 C60.36379266 405.58728468 66.80596895 405.61463167 73.24814963 405.64139622 C84.05154562 405.68555636 94.85494871 405.72641057 105.65836692 405.7647025 C116.78044659 405.80413304 127.90251578 405.84557706 139.02457786 405.8897025 C139.71142115 405.89242677 140.39826445 405.89515104 141.10592118 405.89795787 C144.55199416 405.91163859 147.99806698 405.92535862 151.44413972 405.93909818 C179.9824864 406.05283039 208.52085635 406.15961951 237.05924582 406.26201695 C237.05924582 406.59201695 237.05924582 406.92201695 237.05924582 407.26201695 C206.26392107 407.2848111 175.46859824 407.30251709 144.67326707 407.31308228 C141.04069617 407.31433304 137.40812529 407.31562736 133.77555442 407.31694859 C132.69074819 407.31734206 132.69074819 407.31734206 131.58402668 407.31774347 C119.86156275 407.32209924 108.13910371 407.32998627 96.41664268 407.33916975 C84.39556141 407.34850888 72.37448271 407.35407312 60.35339797 407.35610545 C53.59830044 407.35735653 46.84321313 407.36037498 40.08811927 407.36774701 C33.73694553 407.37450755 27.38578751 407.37663384 21.03461051 407.37512463 C18.69724163 407.37540095 16.35987225 407.37740586 14.02250648 407.38122243 C10.84398823 407.38616018 7.66553021 407.38501491 4.48701072 407.38227147 C3.55122691 407.38518431 2.61544311 407.38809715 1.65130222 407.39109826 C0.38085648 407.38811169 0.38085648 407.38811169 -0.91525483 407.38506478 C-1.64963395 407.3854445 -2.38401307 407.38582422 -3.1406461 407.38621545 C-4.94075418 407.26201695 -4.94075418 407.26201695 -6.94075418 406.26201695 C-6.98648745 354.82885286 -7.0217509 303.39569082 -7.04288483 251.96251041 C-7.04538638 245.89649303 -7.04797501 239.83047568 -7.05061746 233.76445836 C-7.05114208 232.55677461 -7.0516667 231.34909086 -7.05220722 230.10481064 C-7.0609204 210.52551345 -7.07669538 190.94622795 -7.09505977 171.36693771 C-7.11373344 151.29112848 -7.12486552 131.21532539 -7.12893116 111.13950783 C-7.1316815 98.74208808 -7.14038198 86.34470136 -7.15658711 73.94729178 C-7.16712276 65.45699883 -7.1703626 56.96672307 -7.16775693 48.47642405 C-7.16647028 43.57095812 -7.16850388 38.6655501 -7.17916512 33.76009434 C-7.18884047 29.27576722 -7.18942664 24.7915374 -7.18255197 20.30720596 C-7.1817013 18.67864622 -7.18428665 17.05008061 -7.19052054 15.42153259 C-7.19846239 13.22007688 -7.19427266 11.01897967 -7.18684983 8.81753033 C-7.18760927 7.59103367 -7.18836871 6.364537 -7.18915117 5.10087377 C-6.75267264 0.11248794 -4.49507031 0.03216956 0 0 Z " fill="#7C7C7C" transform="translate(37.94075417518616,47.73798304796219)"/>
<path d="M0 0 C55.39940631 -0.02286386 110.79881215 -0.04049694 166.19822225 -0.05106533 C172.73118789 -0.05231611 179.26415352 -0.05361043 185.79711914 -0.05493164 C187.74810181 -0.05532511 187.74810181 -0.05532511 189.73849828 -0.05572652 C210.82840019 -0.06008378 231.91829939 -0.06797163 253.00819968 -0.0771528 C274.63099162 -0.08648779 296.25378214 -0.09205528 317.87657601 -0.09408849 C331.23058745 -0.09546404 344.58459123 -0.09981635 357.93860031 -0.10791647 C367.08252034 -0.11318203 376.22643637 -0.11480473 385.3703578 -0.11350138 C390.65440724 -0.1128577 395.93844324 -0.11387885 401.22249031 -0.11920547 C406.05153677 -0.12403819 410.88056063 -0.1243395 415.70960809 -0.12089889 C417.46466183 -0.12047307 419.21971694 -0.12176988 420.97476798 -0.12488318 C423.34433902 -0.1288451 425.71382644 -0.1267647 428.08339596 -0.12304783 C428.77865921 -0.12567484 429.47392246 -0.12830186 430.1902543 -0.13100848 C434.8858542 -0.1141458 434.8858542 -0.1141458 436 1 C436.09801279 3.14230653 436.12371157 5.28791821 436.12304783 7.43246555 C436.12420167 8.11572237 436.12535552 8.79897918 436.12654433 9.50294074 C436.12921759 11.82120317 436.12468305 14.13939787 436.12025452 16.45765686 C436.12069007 18.12493943 436.12156469 19.79222193 436.12284368 21.45950407 C436.12509169 26.06348919 436.12106321 30.66745129 436.11606562 35.27143347 C436.11176566 40.22783576 436.11320722 45.18423664 436.1139679 50.14064026 C436.11449342 58.73539096 436.11134365 67.33013409 436.10573006 75.92488289 C436.0976189 88.35159963 436.09500023 100.7783127 436.09374207 113.2050318 C436.09155094 133.36431039 436.08488921 153.52358494 436.07543945 173.68286133 C436.0662669 193.27107727 436.0591853 212.85929211 436.05493164 232.44750977 C436.05453756 234.257235 436.05453756 234.257235 436.05413551 236.10352034 C436.05283052 242.15581449 436.0515668 248.20810864 436.05032361 254.2604028 C436.0399491 304.50693814 436.02205482 354.75346854 436 405 C414.88 405 393.76 405 372 405 C372 352.53 372 300.06 372 246 C372.33 246 372.66 246 373 246 C373.33 298.14 373.66 350.28 374 404 C406.92912206 409.90543378 406.92912206 409.90543378 434 402 C434.10303738 399.87866584 434.13401787 397.7538339 434.1386652 395.63000393 C434.14150794 394.95325287 434.14435068 394.27650182 434.14727956 393.57924316 C434.15568238 391.28421635 434.15690001 388.98923967 434.15821838 386.69419861 C434.16277122 385.047418 434.16776208 383.40063854 434.17315674 381.75386047 C434.18679764 377.19738356 434.19415635 372.64091408 434.20057149 368.08442204 C434.20867859 363.10713535 434.22255846 358.12986426 434.23572445 353.15258884 C434.26044293 343.47788667 434.28001041 333.8031808 434.29780969 324.12846369 C434.31860533 312.9447211 434.34575459 301.76099996 434.3729248 290.57727051 C434.44154758 261.03069245 434.50148795 231.48409475 434.5625 201.9375 C434.7790625 102.9684375 434.7790625 102.9684375 435 2 C291.45 1.67 147.9 1.34 0 1 C0 0.67 0 0.34 0 0 Z " fill="#9D9D9D" transform="translate(34,49)"/>
<path d="M0 0 C1.32 0.33 2.64 0.66 4 1 C4.02286403 52.70497762 4.04049703 104.40995473 4.05106533 156.11493641 C4.05231611 162.21228509 4.05361043 168.30963376 4.05493164 174.40698242 C4.05519395 175.62090971 4.05545626 176.834837 4.05572652 178.08554996 C4.06008374 197.76898247 4.06797156 217.45241207 4.0771528 237.13584285 C4.08648791 257.31673896 4.09205531 277.49763353 4.09408849 297.67853171 C4.09546402 310.14196889 4.0998162 322.60539787 4.10791647 335.06883252 C4.11318217 343.60303389 4.1148047 352.13723098 4.11350138 360.67143386 C4.11285772 365.6030873 4.1138786 370.53472634 4.11920547 375.46637726 C4.12403849 379.97345065 4.1243393 384.48049983 4.12089889 388.98757429 C4.1204731 390.62553597 4.12176966 392.26349912 4.12488318 393.9014579 C4.12884565 396.11310224 4.12676435 398.324657 4.12304783 400.53629971 C4.12342755 401.76925162 4.12380727 403.00220353 4.1241985 404.27251762 C4 407 4 407 3 408 C1.0056827 408.09405142 -0.99199543 408.11743249 -2.98852539 408.11352539 C-4.26977798 408.11344986 -5.55103058 408.11337433 -6.87110901 408.11329651 C-8.27995848 408.10818909 -9.68880756 408.10297309 -11.09765625 408.09765625 C-12.53112234 408.09579202 -13.96458907 408.09436814 -15.39805603 408.09336853 C-19.17759957 408.08954372 -22.9571049 408.07971377 -26.7366333 408.06866455 C-30.59069298 408.05844963 -34.44475882 408.05387074 -38.29882812 408.04882812 C-45.86590287 408.03809146 -53.43294609 408.02101549 -61 408 C-61.33 407.34 -61.66 406.68 -62 406 C-40.88 406 -19.76 406 2 406 C1.89516393 354.56681837 1.7856782 303.13364942 1.66888306 251.70049346 C1.65511275 245.6344762 1.64138576 239.56845883 1.62768555 233.50244141 C1.62495724 232.29475766 1.62222894 231.08707391 1.61941796 229.84279369 C1.5752894 210.26350803 1.53467425 190.68421658 1.49534739 171.10492076 C1.45494539 151.02910189 1.41079127 130.95329382 1.36312145 110.87749088 C1.33380317 98.48008993 1.30744524 86.08268983 1.28482103 73.68527482 C1.26904719 65.19497628 1.24964352 56.70469097 1.22733159 48.2144071 C1.21454927 43.30896451 1.20341887 38.40353217 1.19658089 33.49807739 C1.19029481 29.01376307 1.17948673 24.52948402 1.1649667 20.04518901 C1.1605124 18.41663505 1.15776756 16.78807541 1.15683801 15.15951563 C1.15534018 12.95814016 1.14780698 10.75686836 1.1386652 8.55551338 C1.13600716 7.32901672 1.13334911 6.10252005 1.13061053 4.83885682 C1.19469162 2.05135526 1.19469162 2.05135526 0 0 Z " fill="#5C5C5C" transform="translate(468,48)"/>
<path d="M0 0 C1.62109375 1.1328125 1.62109375 1.1328125 3 3 C3.44140625 5.8828125 3.44140625 5.8828125 3.5625 9.125 C3.64514087 12.28203352 3.64514087 12.28203352 4 15 C4.99 15.495 4.99 15.495 6 16 C6 17.32 6 18.64 6 20 C6.66 20 7.32 20 8 20 C8 25.28 8 30.56 8 36 C64.925 35.505 64.925 35.505 123 35 C123 36.32 123 37.64 123 39 C84.39 39 45.78 39 6 39 C5.34 32.4 4.68 25.8 4 19 C3.01 17.68 2.02 16.36 1 15 C0.48828125 12.203125 0.48828125 12.203125 0.3125 9.25 C0.24675781 8.26515625 0.18101562 7.2803125 0.11328125 6.265625 C0.05720703 5.14414062 0.05720703 5.14414062 0 4 C-3.32258548 3.4036385 -5.38802027 3.61632359 -8.26171875 5.41796875 C-11.3506129 7.81249992 -14.2682937 10.22439132 -16.953125 13.0703125 C-19.21167508 15.19955628 -21.31601462 16.3253202 -24.125 17.625 C-26.9261101 18.92996821 -28.80615731 19.80615731 -31 22 C-32.98343396 22.80432248 -34.9934905 23.45581465 -37.02734375 24.12109375 C-39.22346017 25.09956146 -40.32719101 26.30070855 -42 28 C-46.78031468 30.43172529 -51.69596751 31.38799625 -57 32 C-58.33917261 32.30903983 -59.67653254 32.62942911 -61 33 C-61 33.66 -61 34.32 -61 35 C-62.485 35.495 -62.485 35.495 -64 36 C-64.33 36.99 -64.66 37.98 -65 39 C-68.3 39 -71.6 39 -75 39 C-74.67 37.68 -74.34 36.36 -74 35 C-69.545 34.505 -69.545 34.505 -65 34 C-65 33.34 -65 32.68 -65 32 C-58.68472722 29.75219104 -52.52027531 28.22227156 -45.91796875 27.0390625 C-42.32184259 25.75851423 -41.21650126 24.03209696 -39 21 C-37.02111039 20.27306096 -35.02045442 19.60183749 -33 19 C-32.54625 18.505 -32.0925 18.01 -31.625 17.5 C-30 16 -30 16 -26.25 15.3125 C-21.53177454 14.2946744 -19.64746477 11.71033895 -16.73046875 8.0390625 C-12.38188732 2.91500041 -6.90347588 -0.69034759 0 0 Z " fill="#343434" transform="translate(379,447)"/>
<path d="M0 0 C2.08058657 2.08058657 1.38043408 6.41960849 1.5234375 9.23828125 C2.05782782 12.33511695 3.08124308 13.57788088 5 16 C6.65538636 22.38145124 6.10998427 29.46204614 6 36 C5.01 36 4.02 36 3 36 C2.71125 35.195625 2.4225 34.39125 2.125 33.5625 C1.26737432 30.8673532 1.26737432 30.8673532 -1 30 C-2.95156113 22.12147544 -3.29136943 14.07740804 -3 6 C-6.8806712 7.60905879 -9.47030175 9.36068437 -12.25 12.4375 C-15.64636876 16.03054045 -19.02041033 17.5264992 -23.66796875 19.078125 C-26.15826717 20.06256458 -27.88886027 21.37402903 -30 23 C-32 23.66666667 -34 24.33333333 -36 25 C-36.66 25.495 -37.32 25.99 -38 26.5 C-40.50191281 28.37643461 -43.04484352 29.01494784 -46 30 C-46.60328125 30.50144531 -47.2065625 31.00289063 -47.828125 31.51953125 C-50.55045466 33.37521999 -52.48429989 33.49311309 -55.75 33.6875 C-56.73484375 33.75324219 -57.7196875 33.81898438 -58.734375 33.88671875 C-59.85585938 33.94279297 -59.85585938 33.94279297 -61 34 C-61 34.66 -61 35.32 -61 36 C-62.32 36 -63.64 36 -65 36 C-64.67 34.68 -64.34 33.36 -64 32 C-63.01 32 -62.02 32 -61 32 C-61 31.34 -61 30.68 -61 30 C-58.23133001 28.49379352 -55.77985475 27.63922691 -52.6875 27.0625 C-45.49603585 25.55095174 -45.49603585 25.55095174 -39.546875 21.49609375 C-37.79063259 19.79750576 -36.43234941 19.25415311 -34.125 18.5 C-30.78484716 17.32791 -28.01110047 15.88193779 -25 14 C-23.64751079 13.37137825 -22.29319713 12.74667327 -20.9375 12.125 C-17.26187161 10.32147339 -15.48152904 8.28202228 -13 5 C-8.88608977 1.28224409 -5.75615066 -0.82230724 0 0 Z " fill="#BDBDBD" transform="translate(379,450)"/>
<path d="M0 0 C1.62109375 1.1328125 1.62109375 1.1328125 3 3 C3.44140625 5.8828125 3.44140625 5.8828125 3.5625 9.125 C3.64514087 12.28203352 3.64514087 12.28203352 4 15 C4.99 15.495 4.99 15.495 6 16 C6 19.96 6 23.92 6 28 C5.67 28 5.34 28 5 28 C4.94392578 27.09507812 4.94392578 27.09507812 4.88671875 26.171875 C4.82097656 25.37265625 4.75523437 24.5734375 4.6875 23.75 C4.62949219 22.96109375 4.57148438 22.1721875 4.51171875 21.359375 C4.15976092 18.9190627 4.15976092 18.9190627 2.5 17.0625 C0.57124199 14.41045773 0.50571066 12.49593916 0.3125 9.25 C0.24675781 8.26515625 0.18101562 7.2803125 0.11328125 6.265625 C0.05720703 5.14414062 0.05720703 5.14414062 0 4 C-3.32258548 3.4036385 -5.38802027 3.61632359 -8.26171875 5.41796875 C-11.3506129 7.81249992 -14.2682937 10.22439132 -16.953125 13.0703125 C-19.21167508 15.19955628 -21.31601462 16.3253202 -24.125 17.625 C-26.9261101 18.92996821 -28.80615731 19.80615731 -31 22 C-32.98343396 22.80432248 -34.9934905 23.45581465 -37.02734375 24.12109375 C-39.22346017 25.09956146 -40.32719101 26.30070855 -42 28 C-46.78031468 30.43172529 -51.69596751 31.38799625 -57 32 C-58.33917261 32.30903983 -59.67653254 32.62942911 -61 33 C-61 33.66 -61 34.32 -61 35 C-62.485 35.495 -62.485 35.495 -64 36 C-64.33 36.99 -64.66 37.98 -65 39 C-68.3 39 -71.6 39 -75 39 C-74.67 37.68 -74.34 36.36 -74 35 C-69.545 34.505 -69.545 34.505 -65 34 C-65 33.34 -65 32.68 -65 32 C-58.68472722 29.75219104 -52.52027531 28.22227156 -45.91796875 27.0390625 C-42.32184259 25.75851423 -41.21650126 24.03209696 -39 21 C-37.02111039 20.27306096 -35.02045442 19.60183749 -33 19 C-32.54625 18.505 -32.0925 18.01 -31.625 17.5 C-30 16 -30 16 -26.25 15.3125 C-21.53177454 14.2946744 -19.64746477 11.71033895 -16.73046875 8.0390625 C-12.38188732 2.91500041 -6.90347588 -0.69034759 0 0 Z " fill="#373636" transform="translate(379,447)"/>
<path d="M0 0 C2.08058657 2.08058657 1.38043408 6.41960849 1.5234375 9.23828125 C2.05782782 12.33511695 3.08124308 13.57788088 5 16 C6.65538636 22.38145124 6.10998427 29.46204614 6 36 C5.34 36 4.68 36 4 36 C4 33.69 4 31.38 4 29 C3.34 29 2.68 29 2 29 C1.87882812 28.07316406 1.75765625 27.14632813 1.6328125 26.19140625 C1.38144531 24.39509766 1.38144531 24.39509766 1.125 22.5625 C0.96257812 21.36753906 0.80015625 20.17257812 0.6328125 18.94140625 C0.42398438 17.97074219 0.21515625 17.00007813 0 16 C-0.66 15.67 -1.32 15.34 -2 15 C-2.4140625 12.71484375 -2.4140625 12.71484375 -2.625 9.9375 C-2.69976562 9.01839844 -2.77453125 8.09929687 -2.8515625 7.15234375 C-2.90054688 6.44207031 -2.94953125 5.73179687 -3 5 C-7.93083092 6.13788406 -10.618084 7.24231555 -14 11 C-14.66 11 -15.32 11 -16 11 C-16.33 11.99 -16.66 12.98 -17 14 C-18.92578125 15.0625 -18.92578125 15.0625 -21.3125 16 C-23.92865929 17.07530327 -25.90165869 17.92190543 -28.125 19.6875 C-30 21 -30 21 -33.5625 21.5 C-36.95986102 21.69627748 -36.95986102 21.69627748 -38.9375 23.5625 C-39.288125 24.036875 -39.63875 24.51125 -40 25 C-40.66 24.67 -41.32 24.34 -42 24 C-39.02297926 20.4027666 -36.22030416 19.17663734 -31.94140625 17.7109375 C-29.40974812 16.78385142 -27.28322138 15.42701336 -25 14 C-23.64751079 13.37137825 -22.29319713 12.74667327 -20.9375 12.125 C-17.26187161 10.32147339 -15.48152904 8.28202228 -13 5 C-8.88608977 1.28224409 -5.75615066 -0.82230724 0 0 Z " fill="#8D8D8D" transform="translate(379,450)"/>
<path d="M0 0 C2.25 0.25 2.25 0.25 4 1 C3.21625 1.45375 2.4325 1.9075 1.625 2.375 C-1.03698031 3.88428742 -1.03698031 3.88428742 -3 6 C-7.8515668 8.33098267 -12.66032761 9.38388396 -18 10 C-19.33917261 10.30903983 -20.67653254 10.62942911 -22 11 C-22 11.66 -22 12.32 -22 13 C-22.99 13.33 -23.98 13.66 -25 14 C-25.33 14.99 -25.66 15.98 -26 17 C-29.3 17 -32.6 17 -36 17 C-35.67 15.68 -35.34 14.36 -35 13 C-30.545 12.505 -30.545 12.505 -26 12 C-26 11.34 -26 10.68 -26 10 C-19.69270165 7.7550294 -13.49801786 6.19137974 -6.91796875 4.94140625 C-3.63137086 3.88107145 -2.31397475 2.48919778 0 0 Z " fill="#565555" transform="translate(340,469)"/>
<path d="M0 0 C1.99954746 -0.04254356 4.00041636 -0.04080783 6 0 C8.08058657 2.08058657 7.38043408 6.41960849 7.5234375 9.23828125 C8.05782782 12.33511695 9.08124308 13.57788088 11 16 C12.65538636 22.38145124 12.10998427 29.46204614 12 36 C11.34 36 10.68 36 10 36 C10 33.69 10 31.38 10 29 C9.34 29 8.68 29 8 29 C7.05491752 26.16475257 6.73917562 23.92437507 6.5 20.96484375 C6.37625 19.50401367 6.37625 19.50401367 6.25 18.01367188 C6.08301795 15.95900998 5.91635247 13.90432234 5.75 11.84960938 C5.62625 10.39071289 5.62625 10.39071289 5.5 8.90234375 C5.4278125 8.01023193 5.355625 7.11812012 5.28125 6.19897461 C5.11795649 3.96080744 5.11795649 3.96080744 4 2 C2.35 2 0.7 2 -1 2 C-0.67 1.34 -0.34 0.68 0 0 Z " fill="#636363" transform="translate(373,450)"/>
<path d="M0 0 C0 3.3 0 6.6 0 10 C0.99 10.33 1.98 10.66 3 11 C3.33 15.29 3.66 19.58 4 24 C4.66 24 5.32 24 6 24 C6 26.31 6 28.62 6 31 C5.34 30.01 4.68 29.02 4 28 C3.48824219 27.566875 2.97648437 27.13375 2.44921875 26.6875 C-2.60215634 20.80557537 -1.26604697 8.37541333 -1 1 C-5.70270446 3.12741392 -9.16393369 5.62060825 -13 9 C-11.69086773 5.07260319 -10.21009805 2.64361016 -7 0 C-3.97025652 -1.19353531 -3.19632902 -1.06544301 0 0 Z " fill="#C2C2C2" transform="translate(377,455)"/>
<path d="M0 0 C0.66 0.33 1.32 0.66 2 1 C1.0925 1.7425 0.185 2.485 -0.75 3.25 C-2.59461576 4.77010003 -4.17057777 6.19494603 -5.75 8 C-8.76368853 10.67883425 -12.11887429 12.15627081 -15.7578125 13.8515625 C-18.12268119 14.91801267 -18.12268119 14.91801267 -20 17 C-22.68839385 17.26991906 -25.29141936 17.08737357 -28 17 C-28 16.67 -28 16.34 -28 16 C-27.071875 15.731875 -26.14375 15.46375 -25.1875 15.1875 C-22.06527739 14.29950939 -22.06527739 14.29950939 -20.625 12.5 C-18.33747027 10.38843409 -15.95146911 10.17299438 -12.9375 9.625 C-10.57605275 8.86324282 -9.67274377 7.8110585 -8 6 C-6.62072308 4.91609404 -5.22415608 3.85388564 -3.8125 2.8125 C-3.09707031 2.28269531 -2.38164062 1.75289063 -1.64453125 1.20703125 C-1.10183594 0.80871094 -0.55914062 0.41039062 0 0 Z " fill="#444343" transform="translate(368,452)"/>
<path d="M0 0 C-0.99 0.66 -1.98 1.32 -3 2 C-3.33 2.99 -3.66 3.98 -4 5 C-7.3 5 -10.6 5 -14 5 C-13.67 3.68 -13.34 2.36 -13 1 C-8.61414671 0.29826347 -4.44209357 -0.10834375 0 0 Z " fill="#656464" transform="translate(318,481)"/>
<path d="M0 0 C0.99 0.495 0.99 0.495 2 1 C2.39700556 4.10386165 2.50884532 7.18752068 2.65625 10.3125 C2.7696875 11.199375 2.883125 12.08625 3 13 C3.66 13.33 4.32 13.66 5 14 C5 17.96 5 21.92 5 26 C4.67 26 4.34 26 4 26 C3.96261719 25.39671875 3.92523438 24.7934375 3.88671875 24.171875 C3.82097656 23.37265625 3.75523437 22.5734375 3.6875 21.75 C3.62949219 20.96109375 3.57148438 20.1721875 3.51171875 19.359375 C3.16899486 16.91734784 3.16899486 16.91734784 1.46875 15.125 C-0.60462074 12.12522957 -0.29547818 9.84927283 -0.1875 6.25 C-0.16042969 5.07953125 -0.13335937 3.9090625 -0.10546875 2.703125 C-0.07066406 1.81109375 -0.03585937 0.9190625 0 0 Z " fill="#393939" transform="translate(380,449)"/>
<path d="M0 0 C-0.969375 0.639375 -1.93875 1.27875 -2.9375 1.9375 C-5.76036269 3.6965259 -5.76036269 3.6965259 -7 5 C-9.01964199 5.07244053 -11.04167124 5.08377188 -13.0625 5.0625 C-14.16722656 5.05347656 -15.27195312 5.04445313 -16.41015625 5.03515625 C-17.69212891 5.01775391 -17.69212891 5.01775391 -19 5 C-16.16464446 2.63073031 -14.00173861 1.54212583 -10.375 0.875 C-2.22674813 -0.66802444 -2.22674813 -0.66802444 0 0 Z " fill="#929292" transform="translate(337,476)"/>
<path d="M0 0 C0.66 0 1.32 0 2 0 C2.04898437 0.56847656 2.09796875 1.13695312 2.1484375 1.72265625 C2.63053787 6.70158938 3.58436443 11.18683907 5 16 C5 17.32 5 18.64 5 20 C4.34 20 3.68 20 3 20 C3 17.69 3 15.38 3 13 C2.34 13 1.68 13 1 13 C-0.00496852 9.98509443 -0.10335303 7.95818308 -0.0625 4.8125 C-0.05347656 3.91144531 -0.04445313 3.01039063 -0.03515625 2.08203125 C-0.02355469 1.39496094 -0.01195312 0.70789063 0 0 Z " fill="#909090" transform="translate(380,466)"/>
<path d="M0 0 C0.99386719 0.00902344 1.98773438 0.01804687 3.01171875 0.02734375 C4.15060547 0.04474609 4.15060547 0.04474609 5.3125 0.0625 C5.3125 0.7225 5.3125 1.3825 5.3125 2.0625 C1.6825 2.3925 -1.9475 2.7225 -5.6875 3.0625 C-5.6875 3.7225 -5.6875 4.3825 -5.6875 5.0625 C-7.0075 5.0625 -8.3275 5.0625 -9.6875 5.0625 C-9.375 3.125 -9.375 3.125 -8.6875 1.0625 C-5.53819107 0.01273036 -3.29935544 -0.03881595 0 0 Z " fill="#B5B5B5" transform="translate(323.6875,480.9375)"/>
<path d="M0 0 C2 3 2 3 2 5 C3.32 5.33 4.64 5.66 6 6 C6 8.31 6 10.62 6 13 C5.34 12.01 4.68 11.02 4 10 C3.484375 9.5875 2.96875 9.175 2.4375 8.75 C0.257196 6.09571686 0.31518988 3.34101272 0 0 Z " fill="#D1D1D1" transform="translate(377,473)"/>
<path d="M0 0 C3.3 0 6.6 0 10 0 C7.60236815 2.39763185 6.66726502 2.34280586 3.375 2.625 C2.55773437 2.69976562 1.74046875 2.77453125 0.8984375 2.8515625 C0.27195312 2.90054687 -0.35453125 2.94953125 -1 3 C-0.67 2.01 -0.34 1.02 0 0 Z " fill="#302F2F" transform="translate(321,474)"/>
<path d="M0 0 C1.32 0.33 2.64 0.66 4 1 C4 4.96 4 8.92 4 13 C3.67 13 3.34 13 3 13 C2.92652344 12.09507812 2.92652344 12.09507812 2.8515625 11.171875 C2.77679688 10.37265625 2.70203125 9.5734375 2.625 8.75 C2.55539062 7.96109375 2.48578125 7.1721875 2.4140625 6.359375 C1.98492887 3.914123 1.21399362 2.15163097 0 0 Z " fill="#404040" transform="translate(381,462)"/>
</svg>
